HIERARCHY
ROOT Hips
{
	OFFSET -0.179506 -22.333345 2.821913
	CHANNELS 6 Xposition Yposition Zposition Zrotation Yrotation Xrotation 
	JOINT LeftUpLeg
	{
		OFFSET 6.951974 -9.140623 -0.681533
		CHANNELS 3 Zrotation Yrotation Xrotation
		JOINT LeftLeg
		{
			OFFSET 3.427654 -37.519855 -0.449580
			CHANNELS 3 Zrotation Yrotation Xrotation
			JOINT LeftFoot
			{
				OFFSET -1.359570 -39.796059 -4.369333
				CHANNELS 3 Zrotation Yrotation Xrotation
				JOINT LeftToe
				{
					OFFSET 2.635814 -5.579078 11.928840
					CHANNELS 3 Zrotation Yrotation Xrotation
					End Site
					{
						OFFSET 0.000000 0.000000 0.000000
					}
				}
			}
		}
	}
	JOINT RightUpLeg
	{
		OFFSET -6.767048 -9.052170 -0.431982
		CHANNELS 3 Zrotation Yrotation Xrotation
		JOINT RightLeg
		{
			OFFSET -3.829005 -38.256897 -0.885003
			CHANNELS 3 Zrotation Yrotation Xrotation
			JOINT RightFoot
			{
				OFFSET 1.577377 -39.841461 -4.231180
				CHANNELS 3 Zrotation Yrotation Xrotation
				JOINT RightToe
				{
					OFFSET -2.537174 -4.814398 12.334795
					CHANNELS 3 Zrotation Yrotation Xrotation
					End Site
					{
						OFFSET 0.000000 0.000000 0.000000
					}
				}
			}
		}
	}
	JOINT Spine
	{
		OFFSET -0.253288 10.896323 -2.669631
		CHANNELS 3 Zrotation Yrotation Xrotation
		JOINT Spine1
		{
			OFFSET 0.548704 13.518043 0.109247
			CHANNELS 3 Zrotation Yrotation Xrotation
			JOINT Spine2
			{
				OFFSET 0.145701 5.292222 2.542457
				CHANNELS 3 Zrotation Yrotation Xrotation
				JOINT Neck
				{
					OFFSET -0.277840 21.387037 -4.285703
					CHANNELS 3 Zrotation Yrotation Xrotation
					JOINT Head
					{
						OFFSET 0.515184 6.496960 5.134897
						CHANNELS 3 Zrotation Yrotation Xrotation
						End Site
						{
							OFFSET 0.000000 0.000000 0.000000
						}
					}
				}
				JOINT LeftShoulder
				{
					OFFSET 7.884473 12.174932 -3.408961
					CHANNELS 3 Zrotation Yrotation Xrotation
					JOINT LeftArm
					{
						OFFSET 9.097692 3.046888 -0.886815
						CHANNELS 3 Zrotation Yrotation Xrotation
						JOINT LeftForeArm
						{
							OFFSET 25.961220 -1.277207 -2.745643
							CHANNELS 3 Zrotation Yrotation Xrotation
							JOINT LeftHand
							{
								OFFSET 24.923361 0.898606 -0.117091
								CHANNELS 3 Zrotation Yrotation Xrotation
								End Site
								{
									OFFSET 0.000000 0.000000 0.000000
								}
							}
						}
					}
				}
				JOINT RightShoulder
				{
					OFFSET -8.175920 11.883285 -3.861528
					CHANNELS 3 Zrotation Yrotation Xrotation
					JOINT RightArm
					{
						OFFSET -9.601238 3.255117 -0.914307
						CHANNELS 3 Zrotation Yrotation Xrotation
						JOINT RightForeArm
						{
							OFFSET -25.374195 -1.332924 -2.140099
							CHANNELS 3 Zrotation Yrotation Xrotation
							JOINT RightHand
							{
								OFFSET -25.529810 0.777228 -0.555919
								CHANNELS 3 Zrotation Yrotation Xrotation
								End Site
								{
									OFFSET 0.000000 0.000000 0.000000
								}
							}
						}
					}
				}
			}
		}
	}
}
MOTION
Frames: 11
Frame Time: 0.033333
21.826675 111.803741 20.041754 171.321801 -35.791073 -161.361466 15.417786 0.549490 -27.060914 -7.042886 -1.498352 43.564792 -3.831674 11.198964 -5.459700 1.289889 0.461342 -1.034233 -5.242961 -1.562159 -16.480671 2.793762 0.610470 18.917986 4.048996 -6.779949 -1.544514 3.481669 -1.190310 -1.042540 -4.305626 2.313634 17.189186 -3.274256 -1.031690 1.154460 -0.757272 -0.606914 1.432083 -11.114032 1.490788 3.703196 0.488279 2.510181 -7.071534 -18.501891 6.806851 -0.876718 -14.751205 5.383200 -4.520103 28.184785 -47.217083 -36.710465 20.222872 -15.562134 -17.158173 11.892824 -1.142372 -1.551590 36.149383 -6.489912 6.760945 -12.136135 48.054642 -10.114851 -8.768213 15.173880 -14.176927 
21.365908 106.384003 20.680758 172.782430 -39.684410 -165.198464 9.988885 -2.944493 -26.086383 -7.129156 -1.799359 41.247975 -0.460346 11.100476 -13.938184 2.812634 0.505141 -1.066079 -1.714489 0.915376 -19.893111 2.589543 -3.113649 32.363630 -2.388492 -9.935830 -17.793085 3.595273 -1.454904 -1.078133 -2.734297 1.571898 19.191339 -2.447274 -1.603104 0.936639 -2.189566 -0.270365 0.307578 -8.908363 3.226792 0.076912 -1.494016 4.041645 -5.820327 -23.632447 5.311395 -1.782917 -25.952500 0.223041 -2.164758 28.899075 -43.283532 -35.121701 19.403836 -12.786929 -19.194076 16.699274 1.926733 -1.935128 41.538600 -1.496389 10.611234 -12.782254 47.374427 -7.753169 -8.576326 15.077582 -11.080679 
20.753954 101.592079 20.851126 175.092737 -44.196891 -169.621466 6.620978 -6.033113 -25.562265 -5.047768 -1.978254 41.803556 2.425090 12.714310 -24.129899 4.064808 0.721729 -0.992395 0.666872 3.200070 -22.774025 0.962119 -4.688111 46.153259 -4.541652 -12.011191 -29.639271 4.225183 -1.900201 -0.859512 -2.873631 1.317480 20.273111 -0.965305 -2.011622 0.388525 -2.622013 -0.250271 0.214978 -6.665713 5.381265 -3.512225 -2.994532 5.050131 -6.358299 -27.677968 3.836832 -1.457885 -37.907734 -3.319682 1.150928 23.662752 -36.376594 -28.729118 18.507799 -9.948714 -18.968833 20.811597 5.619585 -2.056153 46.177262 3.666830 14.304719 -13.688336 49.470341 -6.922821 -8.652729 14.168294 -8.522415 
21.196875 99.565781 20.234558 177.864130 -47.466288 -172.785393 5.769897 -7.326306 -25.569525 -3.896818 -2.916067 44.134687 3.772476 14.112370 -29.350998 4.669589 0.779717 -1.176756 3.065512 3.057164 -21.756113 0.723376 -4.738885 47.418146 -6.145000 -11.266051 -34.274046 4.961708 -1.968772 -0.786910 -2.109148 2.135489 19.901863 0.204826 -1.272134 1.675368 -2.689688 -0.157240 -0.516947 -4.967586 7.585259 -6.610057 -4.940898 4.632115 -5.854382 -30.371862 2.023682 0.240759 -47.850942 -4.957333 7.305497 13.460407 -28.141678 -14.378437 15.035638 -9.713731 -14.185717 23.039707 9.415199 -1.409856 49.929672 8.839501 17.285979 -16.900200 57.816905 -8.030435 -12.608123 13.690341 -12.181346 
20.236511 101.458092 19.019821 176.511344 -49.626280 -171.547743 4.458609 -7.249503 -22.356613 -3.691625 -4.118834 39.017323 3.552397 12.610506 -26.318160 4.234326 1.155423 -1.126570 3.596507 1.241650 -15.594519 -0.023295 -3.972947 37.560843 -5.864569 -12.787091 -29.783284 5.693765 -2.235858 -1.094584 -1.781344 3.648221 16.653512 0.037597 0.107131 3.159606 -3.071351 0.484672 -0.579998 -3.979247 7.749541 -5.970800 -5.398216 3.558077 -3.264268 -29.842731 2.943136 1.923231 -49.810686 -0.888887 10.098276 5.444213 -29.267407 -0.207640 9.566199 -9.719184 -10.789828 19.214060 10.815023 -2.550634 53.930264 12.356320 18.711976 -33.374883 72.358837 -22.586937 -12.713139 11.490699 -21.605863 
17.997780 106.894043 17.252581 171.853941 -51.026219 -166.516240 2.393281 -7.141499 -15.503995 -1.613197 -3.888791 21.643368 -0.486391 7.464901 -9.569010 1.424447 1.756839 0.073094 2.206815 -1.546818 -4.614238 -0.703302 -2.730263 13.842468 0.085306 -10.168088 -5.529304 5.709853 -2.747296 -1.373464 -2.845761 4.937923 9.634732 -0.424748 2.134502 4.311024 -2.351850 1.188559 0.050119 -4.743330 4.485036 -0.449282 -4.573209 2.970222 -1.529430 -26.258454 9.559934 4.666267 -47.306144 9.832697 10.775539 -3.457686 -42.239319 12.809339 -0.333869 -14.570381 -9.530650 11.533235 7.427764 -3.029405 53.822576 12.572907 15.629573 -119.652042 75.832226 -110.857475 -7.259870 13.056842 -30.277330 
15.771142 113.513168 15.652081 171.344003 -53.512675 -167.932904 1.822137 -7.313648 -13.065401 -0.969217 -3.768259 15.352877 -5.730056 3.318222 5.624806 -0.018205 2.387914 0.515351 1.324786 -4.587925 -4.228219 -0.669875 -6.549974 8.256913 6.720816 -8.594025 15.843280 5.798071 -3.304366 -1.202664 -4.147698 5.606882 5.564948 -0.929499 3.580974 6.238012 -0.844556 1.816865 0.248739 -7.600193 1.664358 4.569989 -1.238148 2.237792 -2.196785 -19.789426 14.523226 8.575872 -42.595958 20.606099 13.562630 -19.420963 -54.298736 28.539124 -5.436946 -20.793980 -11.500559 3.666453 4.708493 -1.921350 47.477179 8.216125 7.632682 -146.465651 59.993709 -139.855886 -3.523053 17.681390 -29.544545 
14.941200 118.735275 14.948332 171.590249 -55.731188 -168.211451 2.073606 -8.566815 -15.968253 -1.675177 -2.818797 22.256216 -5.961175 3.993438 9.695558 0.222743 2.192320 0.385606 1.620883 -4.039206 -9.315399 -0.431808 -7.321012 13.545838 6.446699 -9.687387 19.648388 5.707361 -3.366576 -1.242624 -4.521278 5.625507 6.668489 -1.106393 4.204795 6.660372 -0.232467 1.738356 0.442275 -9.442735 -0.726744 6.723247 0.557862 2.066310 -3.835840 -17.193438 17.225635 10.255390 -38.697005 25.760402 14.759550 -27.483382 -57.243025 34.421651 -5.468164 -23.005830 -11.924024 0.774192 2.652376 -1.924788 41.285716 5.531567 1.937984 -148.990406 51.744811 -143.130195 -1.773460 19.033628 -27.155319 
14.553234 122.196579 14.525091 172.349559 -58.308798 -168.910159 2.984098 -9.905358 -23.241750 -4.334774 -0.861919 40.929932 -3.882031 6.143014 9.033733 1.401464 1.278281 -0.369621 2.885250 -1.433999 -17.594307 0.603160 -7.093523 26.143838 2.944043 -9.626436 17.101874 6.181659 -2.525069 -1.831364 -5.513316 5.342760 11.120381 -1.019809 3.993264 6.960121 -0.390346 1.184001 -0.036343 -10.338089 -1.603591 7.350337 1.097399 3.611850 -5.030059 -16.935908 19.137610 11.059597 -36.762840 28.028430 15.225211 -28.733745 -58.131928 34.610944 -3.468619 -23.567833 -10.993000 0.466273 1.131103 -2.088141 36.506009 3.386770 -1.127383 -148.229940 48.378003 -141.917804 -2.544553 19.134984 -24.840246 
14.110121 124.004471 13.925157 172.073743 -60.466511 -168.423837 4.840621 -11.573533 -33.784386 -5.909127 2.260826 65.601368 -0.616754 7.091772 4.834307 1.741319 0.584138 -0.929724 4.054329 2.232073 -29.528195 2.014914 -9.210301 39.442991 -1.369921 -9.263523 11.223801 6.514462 -1.724728 -2.176951 -5.901550 4.805893 18.634414 -1.013746 3.366208 6.499931 -1.171474 0.457760 -0.532534 -10.603392 -1.745400 6.186182 0.584113 5.187912 -7.839988 -17.716350 18.342406 11.252420 -37.443188 28.819354 15.040560 -25.400507 -57.381001 32.780869 -3.404074 -22.853674 -9.330843 1.209403 0.697825 -1.853508 32.097058 0.938706 -3.787098 -143.706524 47.484500 -136.217268 -4.239066 19.709251 -23.327239 
13.622406 124.424606 13.274935 170.829852 -62.826455 -165.609078 7.545764 -12.017845 -42.695614 -6.374727 5.605855 83.791653 0.823187 5.945231 1.403673 1.274378 0.281758 -1.044624 4.540473 4.332558 -39.148821 2.757320 -12.753353 43.155740 -3.297873 -9.014833 8.226439 6.757507 -1.481580 -2.210542 -6.572563 4.578811 24.369976 -1.316406 2.745971 6.055136 -1.462095 -0.404575 -1.293479 -11.047099 -2.179954 5.027791 1.340306 5.750758 -10.215252 -18.375018 16.999694 10.992013 -38.692491 28.625058 13.907405 -21.557898 -55.717743 29.146343 -2.960648 -22.134922 -8.612025 1.279863 0.080090 -1.215883 30.289478 -2.759050 -4.793339 -138.513081 49.962508 -131.385965 -4.192484 19.465932 -24.115776 
